<svg xmlns="http://www.w3.org/2000/svg" viewBox="0 0 40.5 56.04"><defs><style>.cls-1{fill:#bbb;}</style></defs><title>boss</title><g id="Layer_2" data-name="Layer 2"><g id="Layer_1-2" data-name="Layer 1"><path class="cls-1" d="M40.5,48.54V36.61c0-4-2.44-7.78-6.51-10.3a16.76,16.76,0,1,0-27.64.1C2.38,28.93,0,32.63,0,36.61V48.54H3.4V36.61c0-2.91,1.94-5.69,5.16-7.59a16.69,16.69,0,0,0,8,4.3l-3.48,17L20.25,56l7.16-5.73-3.55-17a16.7,16.7,0,0,0,7.92-4.33c3.31,1.9,5.31,4.7,5.31,7.67V48.54h3.4ZM20.25,51.68,16.84,49,19.7,35h1l2.91,14Zm-.12-21.38A13.45,13.45,0,1,1,33.48,16.85,13.42,13.42,0,0,1,20.13,30.31Z"/></g></g></svg>