<svg xmlns="http://www.w3.org/2000/svg" viewBox="0 0 44.7 53.86"><defs><style>.cls-1{fill:#108ee5;}</style></defs><title>Asset 2</title><g id="Layer_2" data-name="Layer 2"><g id="Layer_1-2" data-name="Layer 1"><path class="cls-1" d="M0,40.56V53.86H3.4V40.56c0-3.35,2.25-6.53,6-8.69a18.32,18.32,0,0,0,25.81-.09c3.82,2.15,6.13,5.37,6.13,8.78V53.86h3.4V40.56c0-4.49-2.76-8.64-7.33-11.41a18.46,18.46,0,1,0-30.22.11C2.69,32,0,36.15,0,40.56ZM22.22,3.4A15.17,15.17,0,0,1,34.3,27.59l0,0-.06.16a15,15,0,0,1-27-9.16A15.13,15.13,0,0,1,22.22,3.4Z"/><path class="cls-1" d="M22.22,29.65a9,9,0,0,0,8.47-6.1l-3.22-1.1a5.53,5.53,0,0,1-10.5,0l-3.22,1.1A9,9,0,0,0,22.22,29.65Z"/><rect class="cls-1" x="14.13" y="14.96" width="4.6" height="3.4"/><rect class="cls-1" x="25.97" y="14.96" width="4.6" height="3.4"/></g></g></svg>