<svg xmlns="http://www.w3.org/2000/svg" viewBox="0 0 979.95 937.5"><defs><style>.cls-1{fill:#108ee5;}</style></defs><title>me-active</title><g id="Layer_2" data-name="Layer 2"><g id="Layer_1-2" data-name="Layer 1"><path class="cls-1" d="M974.95,869.7l.8.7c-54.1-167.3-191.9-297-364.1-339.5,90.8-46.5,153-141,153-250.1C764.65,125.7,638.95,0,483.85,0S203,125.8,203,280.8c0,110.3,63.6,205.8,156.2,251.7-169.8,44.2-304,171.3-357.1,337.2h0s-20,61.9,62.1,67.8H929C949.45,935.6,995,925,974.95,869.7ZM257.85,282.4c0-125.9,102.1-228,228-228s228,102.1,228,228-102.1,228-228,228S257.85,408.3,257.85,282.4Zm646.9,600.8H70.95c-9.6-3.6-11-10.3-10.5-15.1,63.9-174.6,231.6-299.3,428.4-299.3,197.1,0,365,125.1,428.7,300.2C917.65,879.6,908.95,882.5,904.75,883.2Z"/><path class="cls-1" d="M601.45,293.4a24,24,0,0,0,23.8,20.9c1,0,2.1-.1,3.2-.2a24.06,24.06,0,0,0,20.7-26.9c-10-76.4-50.6-118.6-83-140.6-35-23.7-68-29.3-69.4-29.5a24,24,0,1,0-7.6,47.4C489.95,164.6,586.75,181.5,601.45,293.4Z"/></g></g></svg>